<svg xmlns="http://www.w3.org/2000/svg" xmlns:xlink="http://www.w3.org/1999/xlink" width="2250" zoomAndPan="magnify" viewBox="0 0 1687.5 1687.499993" height="2250" preserveAspectRatio="xMidYMid meet" version="1.0"><defs><clipPath id="9bf869a5eb"><path d="M 0.582031 0.582031 L 1686.917969 0.582031 L 1686.917969 1686.917969 L 0.582031 1686.917969 Z M 0.582031 0.582031 " clip-rule="nonzero"/></clipPath><clipPath id="a6f9cf988b"><path d="M 843.75 0.582031 C 378.082031 0.582031 0.582031 378.082031 0.582031 843.75 C 0.582031 1309.417969 378.082031 1686.917969 843.75 1686.917969 C 1309.417969 1686.917969 1686.917969 1309.417969 1686.917969 843.75 C 1686.917969 378.082031 1309.417969 0.582031 843.75 0.582031 " clip-rule="nonzero"/></clipPath></defs><g clip-path="url(#9bf869a5eb)"><g clip-path="url(#a6f9cf988b)"><path fill="#fefefe" d="M 0.582031 0.582031 L 1686.917969 0.582031 L 1686.917969 1686.917969 L 0.582031 1686.917969 Z M 0.582031 0.582031 " fill-opacity="1" fill-rule="nonzero"/></g></g><path fill="#000000" d="M 1009.890625 843.6875 C 1009.890625 846.402344 1009.824219 849.117188 1009.691406 851.832031 C 1009.554688 854.542969 1009.355469 857.25 1009.089844 859.953125 C 1008.824219 862.65625 1008.492188 865.351562 1008.09375 868.039062 C 1007.695312 870.722656 1007.230469 873.398438 1006.699219 876.0625 C 1006.167969 878.726562 1005.574219 881.375 1004.914062 884.011719 C 1004.253906 886.644531 1003.53125 889.261719 1002.742188 891.863281 C 1001.953125 894.460938 1001.101562 897.039062 1000.1875 899.597656 C 999.269531 902.152344 998.292969 904.6875 997.253906 907.195312 C 996.214844 909.707031 995.113281 912.1875 993.953125 914.644531 C 992.789062 917.097656 991.570312 919.523438 990.289062 921.917969 C 989.007812 924.3125 987.667969 926.675781 986.273438 929.007812 C 984.875 931.335938 983.421875 933.628906 981.914062 935.886719 C 980.402344 938.144531 978.839844 940.367188 977.222656 942.546875 C 975.601562 944.730469 973.933594 946.871094 972.207031 948.96875 C 970.484375 951.070312 968.710938 953.125 966.886719 955.136719 C 965.0625 957.148438 963.1875 959.117188 961.269531 961.035156 C 959.347656 962.957031 957.378906 964.828125 955.367188 966.652344 C 953.355469 968.476562 951.296875 970.25 949.199219 971.972656 C 947.097656 973.695312 944.957031 975.367188 942.773438 976.984375 C 940.59375 978.601562 938.371094 980.167969 936.113281 981.675781 C 933.855469 983.183594 931.558594 984.636719 929.230469 986.035156 C 926.898438 987.429688 924.535156 988.769531 922.140625 990.046875 C 919.742188 991.328125 917.316406 992.550781 914.863281 993.710938 C 912.40625 994.871094 909.921875 995.972656 907.414062 997.011719 C 904.902344 998.050781 902.367188 999.027344 899.8125 999.941406 C 897.253906 1000.859375 894.675781 1001.710938 892.074219 1002.5 C 889.472656 1003.285156 886.855469 1004.011719 884.222656 1004.671875 C 881.585938 1005.332031 878.9375 1005.925781 876.269531 1006.457031 C 873.605469 1006.984375 870.929688 1007.449219 868.242188 1007.847656 C 865.554688 1008.246094 862.859375 1008.578125 860.15625 1008.84375 C 857.453125 1009.113281 854.746094 1009.3125 852.03125 1009.445312 C 849.316406 1009.578125 846.601562 1009.644531 843.886719 1009.644531 C 841.167969 1009.644531 838.453125 1009.578125 835.742188 1009.445312 C 833.027344 1009.3125 830.316406 1009.113281 827.613281 1008.84375 C 824.910156 1008.578125 822.214844 1008.246094 819.527344 1007.847656 C 816.839844 1007.449219 814.164062 1006.984375 811.5 1006.457031 C 808.835938 1005.925781 806.183594 1005.332031 803.550781 1004.671875 C 800.914062 1004.011719 798.296875 1003.285156 795.699219 1002.5 C 793.097656 1001.710938 790.519531 1000.859375 787.960938 999.941406 C 785.402344 999.027344 782.867188 998.050781 780.359375 997.011719 C 777.847656 995.972656 775.367188 994.871094 772.910156 993.710938 C 770.453125 992.550781 768.027344 991.328125 765.632812 990.046875 C 763.234375 988.769531 760.871094 987.429688 758.542969 986.035156 C 756.210938 984.636719 753.917969 983.183594 751.660156 981.675781 C 749.398438 980.167969 747.179688 978.601562 744.996094 976.984375 C 742.816406 975.367188 740.675781 973.695312 738.574219 971.972656 C 736.472656 970.25 734.417969 968.476562 732.402344 966.652344 C 730.390625 964.828125 728.425781 962.957031 726.503906 961.035156 C 724.582031 959.117188 722.710938 957.148438 720.886719 955.136719 C 719.058594 953.125 717.285156 951.070312 715.5625 948.96875 C 713.839844 946.871094 712.167969 944.730469 710.550781 942.546875 C 708.933594 940.367188 707.367188 938.144531 705.859375 935.886719 C 704.347656 933.628906 702.894531 931.335938 701.5 929.007812 C 700.101562 926.675781 698.765625 924.3125 697.484375 921.917969 C 696.203125 919.523438 694.980469 917.097656 693.820312 914.644531 C 692.660156 912.1875 691.558594 909.707031 690.519531 907.195312 C 689.476562 904.6875 688.5 902.152344 687.585938 899.597656 C 686.671875 897.039062 685.820312 894.460938 685.03125 891.863281 C 684.242188 889.261719 683.515625 886.644531 682.855469 884.011719 C 682.195312 881.375 681.601562 878.726562 681.070312 876.0625 C 680.542969 873.398438 680.078125 870.722656 679.679688 868.039062 C 679.28125 865.351562 678.949219 862.65625 678.679688 859.953125 C 678.414062 857.25 678.214844 854.542969 678.082031 851.832031 C 677.949219 849.117188 677.882812 846.402344 677.882812 843.6875 C 677.882812 840.972656 677.949219 838.257812 678.082031 835.542969 C 678.214844 832.832031 678.414062 830.125 678.679688 827.421875 C 678.949219 824.71875 679.28125 822.023438 679.679688 819.335938 C 680.078125 816.648438 680.542969 813.972656 681.070312 811.308594 C 681.601562 808.644531 682.195312 805.996094 682.855469 803.363281 C 683.515625 800.726562 684.242188 798.109375 685.03125 795.511719 C 685.820312 792.914062 686.671875 790.335938 687.585938 787.777344 C 688.5 785.21875 689.476562 782.6875 690.519531 780.179688 C 691.558594 777.667969 692.660156 775.1875 693.820312 772.730469 C 694.980469 770.277344 696.203125 767.851562 697.484375 765.457031 C 698.765625 763.058594 700.101562 760.699219 701.5 758.367188 C 702.894531 756.039062 704.347656 753.746094 705.859375 751.484375 C 707.367188 749.226562 708.933594 747.007812 710.550781 744.828125 C 712.167969 742.644531 713.839844 740.503906 715.5625 738.40625 C 717.285156 736.304688 719.058594 734.25 720.886719 732.238281 C 722.710938 730.222656 724.582031 728.257812 726.503906 726.335938 C 728.425781 724.417969 730.390625 722.542969 732.40625 720.71875 C 734.417969 718.898438 736.472656 717.125 738.574219 715.398438 C 740.675781 713.675781 742.816406 712.007812 744.996094 710.390625 C 747.179688 708.769531 749.398438 707.207031 751.660156 705.699219 C 753.917969 704.1875 756.210938 702.738281 758.542969 701.339844 C 760.871094 699.945312 763.234375 698.605469 765.632812 697.324219 C 768.027344 696.046875 770.453125 694.824219 772.910156 693.664062 C 775.367188 692.5 777.847656 691.402344 780.359375 690.363281 C 782.867188 689.324219 785.402344 688.34375 787.960938 687.429688 C 790.519531 686.515625 793.097656 685.664062 795.699219 684.875 C 798.296875 684.085938 800.914062 683.363281 803.550781 682.703125 C 806.183594 682.042969 808.835938 681.449219 811.5 680.917969 C 814.164062 680.386719 816.839844 679.925781 819.527344 679.527344 C 822.214844 679.128906 824.910156 678.792969 827.613281 678.527344 C 830.316406 678.261719 833.027344 678.0625 835.742188 677.929688 C 838.453125 677.796875 841.167969 677.730469 843.886719 677.730469 C 846.601562 677.730469 849.316406 677.796875 852.03125 677.929688 C 854.746094 678.0625 857.453125 678.261719 860.15625 678.527344 C 862.859375 678.792969 865.554688 679.128906 868.242188 679.527344 C 870.929688 679.925781 873.605469 680.386719 876.269531 680.917969 C 878.9375 681.449219 881.585938 682.042969 884.222656 682.703125 C 886.855469 683.363281 889.472656 684.085938 892.074219 684.875 C 894.675781 685.664062 897.253906 686.515625 899.8125 687.429688 C 902.367188 688.34375 904.902344 689.324219 907.414062 690.363281 C 909.921875 691.402344 912.40625 692.5 914.863281 693.664062 C 917.316406 694.824219 919.742188 696.046875 922.140625 697.324219 C 924.535156 698.605469 926.898438 699.945312 929.230469 701.339844 C 931.558594 702.738281 933.855469 704.1875 936.113281 705.699219 C 938.371094 707.207031 940.59375 708.769531 942.773438 710.390625 C 944.957031 712.007812 947.097656 713.675781 949.199219 715.398438 C 951.296875 717.125 953.355469 718.898438 955.367188 720.71875 C 957.378906 722.542969 959.347656 724.417969 961.269531 726.335938 C 963.1875 728.257812 965.0625 730.222656 966.886719 732.238281 C 968.710938 734.25 970.484375 736.304688 972.207031 738.40625 C 973.933594 740.503906 975.601562 742.644531 977.222656 744.828125 C 978.839844 747.007812 980.402344 749.226562 981.914062 751.484375 C 983.421875 753.746094 984.875 756.039062 986.273438 758.367188 C 987.667969 760.699219 989.007812 763.058594 990.289062 765.457031 C 991.570312 767.851562 992.789062 770.277344 993.953125 772.730469 C 995.113281 775.1875 996.214844 777.667969 997.253906 780.179688 C 998.292969 782.6875 999.269531 785.21875 1000.1875 787.777344 C 1001.101562 790.335938 1001.953125 792.914062 1002.742188 795.511719 C 1003.53125 798.109375 1004.253906 800.726562 1004.914062 803.363281 C 1005.574219 805.996094 1006.167969 808.644531 1006.699219 811.308594 C 1007.230469 813.972656 1007.695312 816.648438 1008.09375 819.335938 C 1008.492188 822.023438 1008.824219 824.71875 1009.089844 827.421875 C 1009.355469 830.125 1009.554688 832.832031 1009.691406 835.542969 C 1009.824219 838.257812 1009.890625 840.972656 1009.890625 843.6875 Z M 1009.890625 843.6875 " fill-opacity="1" fill-rule="nonzero"/><path fill="#000000" d="M 843.886719 124.539062 C 686.183594 124.539062 567.210938 433.71875 567.210938 843.6875 C 567.210938 1253.65625 686.183594 1562.835938 843.886719 1562.835938 C 1001.589844 1562.835938 1120.558594 1253.65625 1120.558594 843.6875 C 1120.558594 433.71875 1001.589844 124.539062 843.886719 124.539062 Z M 843.886719 1457.398438 C 732 1457.398438 606.832031 1194.964844 606.832031 843.6875 C 606.832031 492.410156 732 229.976562 843.886719 229.976562 C 955.773438 229.976562 1080.9375 492.410156 1080.9375 843.6875 C 1080.9375 1194.964844 955.773438 1457.398438 843.886719 1457.398438 Z M 843.886719 1457.398438 " fill-opacity="1" fill-rule="nonzero"/><path fill="#000000" d="M 220.875 484.113281 C 142.019531 620.640625 350.355469 878.207031 705.550781 1083.21875 C 1060.6875 1288.175781 1387.992188 1339.789062 1466.84375 1203.261719 C 1545.695312 1066.679688 1337.359375 809.113281 982.222656 604.101562 C 627.03125 399.140625 299.726562 347.53125 220.875 484.113281 Z M 1375.484375 1150.542969 C 1319.488281 1247.40625 1029.589844 1224.558594 725.304688 1048.867188 C 421.019531 873.28125 256.230469 633.695312 312.230469 536.832031 C 368.175781 439.96875 658.070312 462.816406 962.355469 638.398438 C 1266.640625 813.980469 1431.429688 1053.625 1375.484375 1150.542969 Z M 1375.484375 1150.542969 " fill-opacity="1" fill-rule="nonzero"/><path fill="#000000" d="M 220.929688 1203.207031 C 299.835938 1339.789062 627.085938 1288.175781 982.222656 1083.164062 C 1337.359375 878.207031 1545.75 620.640625 1466.953125 484.113281 C 1388.046875 347.585938 1060.796875 399.140625 705.550781 604.101562 C 350.410156 809.113281 142.078125 1066.679688 220.929688 1203.207031 Z M 1375.484375 536.777344 C 1431.484375 633.695312 1266.640625 873.28125 962.414062 1048.921875 C 658.070312 1224.558594 368.175781 1247.40625 312.230469 1150.488281 C 256.289062 1053.625 421.019531 814.035156 725.304688 638.398438 C 1029.644531 462.757812 1319.652344 439.914062 1375.484375 536.777344 Z M 1375.484375 536.777344 " fill-opacity="1" fill-rule="nonzero"/></svg>